OpenSim_Sub02_CSStiffKnee_GRF.mot
version=1
nRows=34
nColumns=19
inDegrees=no
endheader
time	lFx	lFy	lFz	lCOPx	lCOPy	lCOPz	rFx	rFy	rFz	rCOPx	rCOPy	rCOPz	lMx	lMy	lMz	rMx	rMy	rMz
17.22000000	-52.51833736	123.08918671	16.92589702	0.57511997	0	-0.66605465	54.68322281	420.52329458	-37.74539879	0.47917070	0	-0.41856547	0	-2.70444156	0	0	1.28999027	0
17.23000000	-53.40513828	172.58020654	19.40526926	0.59017790	0	-0.67144356	55.38689812	386.51927763	-33.86443324	0.47434007	0	-0.41950381	0	-1.46753584	0	0	1.39208513	-0.00000000
17.24000000	-42.87894577	222.79492733	21.38839812	0.58710785	0	-0.66542505	54.25858182	345.81745280	-29.07869310	0.47070670	0	-0.42158315	0	0.36697898	0	0	1.50943409	-0.00000000
17.25000000	-31.35578911	274.06141388	26.51849413	0.57437134	0	-0.65954735	50.66776601	298.54377412	-23.54101693	0.46875455	0	-0.42570083	0	0.87932137	0	0	1.58406937	0.00000000
17.26000000	-22.55082198	325.51204832	33.84051475	0.56174097	0	-0.65687731	44.32442419	245.95821388	-18.00985103	0.46845621	0	-0.43209137	0	0.32095481	0	0	1.62526422	0
17.27000000	-16.73195805	376.27983698	41.10863270	0.55352773	0	-0.65680319	35.25992415	190.77310059	-13.46625482	0.46763714	0	-0.43815718	0	-0.22704327	0	0	1.57676596	0.00000000
17.28000000	-12.75185585	425.45021217	48.05143728	0.54895826	0	-0.65770646	23.71968759	137.46809293	-10.54155565	0.45853204	0	-0.43484940	0	-0.78374738	0	0	1.31110906	0.00000000
17.29000000	-8.78801071	471.26074036	54.22836264	0.54550101	0	-0.65866404	11.12219484	90.76392263	-9.29763171	0.42289249	0	-0.40402988	0	-1.15872809	0	0	0.92264017	0
17.30000000	-3.83157043	511.64796094	59.54515449	0.54138438	0	-0.65944296	0.25733190	54.00840282	-8.60673307	0.33735337	0	-0.32309215	0	-1.35760593	0	0	0.50561527	0
17.31000000	2.03349098	545.19826852	64.01037101	0.53620384	0	-0.66012234	-5.79769794	27.93853259	-7.02374329	0.19991595	0	-0.19160946	0	-1.50256959	0	0	0.15089107	-0.00000000
17.32000000	8.10290643	571.90743882	67.60800511	0.53037752	0	-0.66079494	-6.08047292	11.07589297	-4.19497699	0.07421639	0	-0.07141841	0	-1.58975279	0	0	-0.00911219	-0.00000000
17.33000000	13.44148465	592.59321327	70.36405411	0.52448608	0	-0.66141691	-3.43455503	1.89781761	-1.15648769	0.00714733	0	-0.00708082	0	-1.63419751	0	0	-0.04714388	-0.00000000
17.34000000	17.51002210	607.79237471	72.04913826	0.51886689	0	-0.66191550	-1.04761859	-1.33571313	0.37572119	-0.01380679	0	0.01312255	0	-1.59300582	0	0	-0.03562730	0
17.35000000	20.15896230	617.50083640	72.38907898	0.51388119	0	-0.66224269	0.16656896	-1.54063595	0.60383891	-0.01302267	0	0.01245316	0	-1.44983485	0	0	-0.01630724	0.00000000
17.36000000	21.67967432	621.07959965	71.27367970	0.50947573	0	-0.66240749	0.49481118	-0.91913440	0.59261487	-0.00686408	0	0.00658511	0	-1.16759172	0	0	-0.00375917	0.00000000
17.37000000	22.61999879	618.19772915	68.96846332	0.50524074	0	-0.66244897	0.44535186	-0.34785997	0.36102903	-0.00210281	0	0.00202796	0	-0.75549683	0	0	0.00126809	0.00000000
17.38000000	23.30582718	609.48383961	66.02661668	0.50067108	0	-0.66239247	0.32422710	-0.01277585	0.13213880	0.00011390	0	-0.00010070	0	-0.24747783	0	0	0.00201433	-0.00000000
17.39000000	23.81434654	596.37368379	63.00392970	0.49560047	0	-0.66227401	0.21573209	0.08129661	0.13678023	0.00064644	0	-0.00061605	0	0.28409150	0	0	0.00129051	0.00000000
17.40000000	24.05865995	580.53790326	60.27254940	0.49022457	0	-0.66216719	0.14752968	-0.02114340	0.13870470	0.00049144	0	-0.00047041	0	0.75160047	0	0	0.00050982	0.00000000
17.41000000	24.04462305	563.51615876	57.99979436	0.48471962	0	-0.66212205	0.09747838	-0.18921740	0.08276770	0.00022595	0	-0.00021700	0	1.11363994	0	0	0.00007092	-0.00000000
17.42000000	23.95114531	546.48234047	56.17326139	0.47900014	0	-0.66215166	0.07044753	-0.32709951	0.08748149	0.00005265	0	-0.00005099	0	1.36362216	0	0	-0.00007725	-0.00000000
17.43000000	23.98138214	530.00199324	54.59399392	0.47293610	0	-0.66221617	0.07596008	-0.33746579	0.10439314	-0.00001716	0	0.00001612	0	1.50696156	0	0	-0.00008103	0.00000000
17.44000000	24.23641819	514.39677928	53.05352445	0.46690011	0	-0.66227846	0.09884923	-0.26006708	0.12337641	-0.00002778	0	0.00002648	0	1.59270181	0	0	-0.00004498	-0.00000000
17.45000000	24.74941573	499.70605810	51.46717500	0.46107468	0	-0.66235740	0.15316408	-0.21893584	0.15266291	-0.00001789	0	0.00001711	0	1.65524238	0	0	-0.00001486	-0.00000000
17.46000000	25.54190578	485.81923160	49.78748794	0.45520308	0	-0.66248297	0.18938038	-0.19560199	0.11764523	-0.00000692	0	0.00000673	0	1.77998774	0	0	0.00000002	0.00000000
17.47000000	26.56587808	472.89587253	48.05365257	0.44891011	0	-0.66262619	0.16334064	-0.16122217	0.06874408	-0.00000028	0	0.00000062	0	1.98491482	0	0	0.00000416	-0.00000000
17.48000000	27.73380702	461.34728818	46.32325452	0.44223222	0	-0.66274072	0.12026859	-0.13855426	0.06495585	0.00000268	0	-0.00000185	0	2.20241842	0	0	0.00000350	0.00000000
17.49000000	28.88518073	451.68475126	44.76040820	0.43559899	0	-0.66283717	0.09016398	-0.09160939	0.11242649	0.00000334	0	-0.00000225	0	2.36965464	0	0	0.00000133	-0.00000000
17.50000000	29.99367884	444.29126719	43.49179797	0.42940378	0	-0.66292778	0.08937149	-0.05939129	0.13179673	0.00000127	0	-0.00000102	0	2.49592332	0	0	-0.00000164	0.00000000
17.51000000	31.19985219	439.31010132	42.49588174	0.42335778	0	-0.66296476	0.10219768	-0.08565869	0.13072205	-0.00000626	0	0.00000301	0	2.62118743	0	0	-0.00000564	0.00000000
17.52000000	32.79571766	436.63727535	41.70925388	0.41675714	0	-0.66285773	0.13041183	-0.16793876	0.11519231	-0.00002224	0	0.00001142	0	2.76226215	0	0	-0.00000945	0.00000000
17.53000000	34.90401444	436.20516834	41.10419160	0.40966051	0	-0.66263569	0.14640181	-0.24086346	0.02801908	-0.00004355	0	0.00002282	0	2.92121053	0	0	-0.00000744	-0.00000000
17.54000000	37.41787679	437.86779659	40.71482090	0.40225775	0	-0.66231236	0.16423907	-0.29014003	-0.02768612	-0.00004877	0	0.00002637	0	3.09246890	0	0	0.00001275	0.00000000
17.55000000	40.35477413	441.25235043	40.56539144	0.39472007	0	-0.66190055	0.16789633	-0.27011588	-0.03670302	0.00001586	0	-0.00000579	0	3.27944920	0	0	0.00006693	-0.00000000
